<svg width="114" height="114" viewBox="0 0 114 114" fill="none" xmlns="http://www.w3.org/2000/svg">
<path opacity="0.6" fill-rule="evenodd" clip-rule="evenodd" d="M57.9998 1C57.9998 0.447715 57.5521 0 56.9998 0C56.4475 0 55.9998 0.447715 55.9998 1V4.03876C55.9998 4.59104 56.4475 5.03876 56.9998 5.03876C57.5521 5.03876 57.9998 4.59104 57.9998 4.03876V1ZM57.9998 109.961C57.9998 109.409 57.5521 108.961 56.9998 108.961C56.4475 108.961 55.9998 109.409 55.9998 109.961V113C55.9998 113.552 56.4475 114 56.9998 114C57.5521 114 57.9998 113.552 57.9998 113V109.961ZM5.03876 56.9995C5.03876 57.5518 4.59104 57.9995 4.03876 57.9995H1C0.447715 57.9995 0 57.5518 0 56.9995C0 56.4472 0.447715 55.9995 1 55.9995H4.03876C4.59104 55.9995 5.03876 56.4472 5.03876 56.9995ZM113 58C113.552 58 114 57.5523 114 57C114 56.4477 113.552 56 113 56H109.961C109.409 56 108.961 56.4477 108.961 57C108.961 57.5523 109.409 58 109.961 58H113ZM20.2577 93.7421C20.6482 94.1326 20.6482 94.7658 20.2577 95.1563L18.109 97.3051C17.7185 97.6956 17.0853 97.6956 16.6948 97.3051C16.3042 96.9145 16.3042 96.2814 16.6948 95.8908L18.8435 93.7421C19.234 93.3516 19.8672 93.3516 20.2577 93.7421ZM97.3048 18.109C97.6954 17.7184 97.6954 17.0853 97.3048 16.6947C96.9143 16.3042 96.2811 16.3042 95.8906 16.6947L93.7419 18.8435C93.3514 19.234 93.3514 19.8672 93.7419 20.2577C94.1324 20.6482 94.7656 20.6482 95.1561 20.2577L97.3048 18.109ZM20.258 20.2574C19.8674 20.6479 19.2343 20.6479 18.8437 20.2574L16.695 18.1087C16.3045 17.7181 16.3045 17.085 16.695 16.6945C17.0855 16.3039 17.7187 16.3039 18.1092 16.6945L20.258 18.8432C20.6485 19.2337 20.6485 19.8669 20.258 20.2574ZM95.8904 97.3048C96.2809 97.6953 96.9141 97.6953 97.3046 97.3048C97.6951 96.9142 97.6951 96.2811 97.3046 95.8905L95.1559 93.7418C94.7653 93.3513 94.1322 93.3513 93.7416 93.7418C93.3511 94.1323 93.3511 94.7655 93.7416 95.156L95.8904 97.3048ZM31.0192 102C31.4975 102.276 31.6614 102.887 31.3853 103.366L29.8659 105.997C29.5897 106.476 28.9781 106.64 28.4998 106.363C28.0216 106.087 27.8577 105.476 28.1338 104.997L29.6532 102.366C29.9293 101.887 30.5409 101.724 31.0192 102ZM85.8658 9.00244C86.142 8.52415 85.9781 7.91256 85.4998 7.63642C85.0215 7.36027 84.4099 7.52415 84.1338 8.00244L82.6144 10.6341C82.3383 11.1124 82.5021 11.724 82.9804 12.0001C83.4587 12.2763 84.0703 12.1124 84.3465 11.6341L85.8658 9.00244ZM12.0002 31.019C11.7241 31.4973 11.1125 31.6612 10.6342 31.3851L8.00257 29.8657C7.52428 29.5895 7.36041 28.978 7.63655 28.4997C7.91269 28.0214 8.52428 27.8575 9.00257 28.1336L11.6342 29.653C12.1125 29.9292 12.2764 30.5408 12.0002 31.019ZM104.997 85.866C105.475 86.1422 106.087 85.9783 106.363 85.5C106.639 85.0217 106.475 84.4101 105.997 84.134L103.365 82.6146C102.887 82.3385 102.275 82.5023 101.999 82.9806C101.723 83.4589 101.887 84.0705 102.365 84.3466L104.997 85.866ZM6.80913 70.4487C6.95207 70.9822 6.63549 71.5305 6.10202 71.6734L3.16681 72.4599C2.63334 72.6029 2.085 72.2863 1.94206 71.7528C1.79912 71.2194 2.1157 70.671 2.64917 70.5281L5.58438 69.7416C6.11785 69.5986 6.66619 69.9152 6.80913 70.4487ZM111.35 43.4718C111.884 43.3288 112.2 42.7805 112.057 42.247C111.914 41.7136 111.366 41.397 110.833 41.5399L107.897 42.3264C107.364 42.4694 107.047 43.0177 107.19 43.5512C107.333 44.0846 107.882 44.4012 108.415 44.2583L111.35 43.4718ZM43.5516 6.80919C43.0181 6.95213 42.4698 6.63555 42.3269 6.10208L41.5404 3.16686C41.3974 2.6334 41.714 2.08506 42.2475 1.94212C42.7809 1.79918 43.3293 2.11576 43.4722 2.64923L44.2587 5.58444C44.4017 6.11791 44.0851 6.66625 43.5516 6.80919ZM70.5275 111.35C70.6705 111.884 71.2188 112.2 71.7523 112.057C72.2858 111.914 72.6023 111.366 72.4594 110.832L71.6729 107.897C71.53 107.364 70.9816 107.047 70.4482 107.19C69.9147 107.333 69.5981 107.881 69.7411 108.415L70.5275 111.35ZM12 82.9805C12.2761 83.4588 12.1123 84.0704 11.634 84.3465L9.00233 85.8659C8.52404 86.142 7.91245 85.9781 7.63631 85.4998C7.36016 85.0216 7.52404 84.41 8.00233 84.1338L10.634 82.6144C11.1123 82.3383 11.7239 82.5022 12 82.9805ZM105.997 29.866C106.475 29.5899 106.639 28.9783 106.363 28.5C106.087 28.0217 105.475 27.8578 104.997 28.134L102.365 29.6534C101.887 29.9295 101.723 30.5411 101.999 31.0194C102.276 31.4977 102.887 31.6615 103.365 31.3854L105.997 29.866ZM31.0195 12.0003C30.5412 12.2764 29.9296 12.1126 29.6534 11.6343L28.1341 9.00263C27.8579 8.52434 28.0218 7.91275 28.5001 7.63661C28.9784 7.36047 29.59 7.52434 29.8661 8.00263L31.3855 10.6343C31.6616 11.1126 31.4978 11.7242 31.0195 12.0003ZM84.1334 105.997C84.4096 106.475 85.0212 106.639 85.4995 106.363C85.9777 106.087 86.1416 105.475 85.8655 104.997L84.3461 102.365C84.07 101.887 83.4584 101.723 82.9801 101.999C82.5018 102.276 82.3379 102.887 82.614 103.365L84.1334 105.997ZM6.80888 43.5518C6.66594 44.0853 6.11761 44.4018 5.58414 44.2589L2.64892 43.4724C2.11546 43.3295 1.79887 42.7811 1.94182 42.2477C2.08476 41.7142 2.6331 41.3976 3.16656 41.5406L6.10178 42.327C6.63524 42.47 6.95183 43.0183 6.80888 43.5518ZM110.833 72.4596C111.366 72.6025 111.914 72.2859 112.057 71.7525C112.2 71.219 111.884 70.6707 111.35 70.5277L108.415 69.7412C107.882 69.5983 107.333 69.9149 107.19 70.4483C107.047 70.9818 107.364 71.5302 107.897 71.6731L110.833 72.4596ZM70.4485 6.80919C69.9151 6.66625 69.5985 6.11791 69.7414 5.58444L70.5279 2.64923C70.6708 2.11576 71.2192 1.79918 71.7526 1.94212C72.2861 2.08506 72.6027 2.6334 72.4597 3.16686L71.6733 6.10208C71.5303 6.63555 70.982 6.95213 70.4485 6.80919ZM41.54 110.832C41.3971 111.366 41.7136 111.914 42.2471 112.057C42.7806 112.2 43.3289 111.884 43.4719 111.35L44.2583 108.415C44.4013 107.881 44.0847 107.333 43.5512 107.19C43.0178 107.047 42.4694 107.364 42.3265 107.897L41.54 110.832ZM63.782 108.516C64.3296 108.444 64.8319 108.83 64.904 109.377L65.3006 112.39C65.3727 112.938 64.9873 113.44 64.4397 113.512C63.8921 113.584 63.3898 113.199 63.3177 112.651L62.9211 109.638C62.849 109.091 63.2345 108.588 63.782 108.516ZM50.6817 1.34848C50.6096 0.800918 50.1073 0.415471 49.5597 0.487559C49.0122 0.559647 48.6267 1.06197 48.6988 1.60953L49.0954 4.62229C49.1675 5.16985 49.6699 5.5553 50.2174 5.48321C50.765 5.41112 51.1504 4.9088 51.0783 4.36124L50.6817 1.34848ZM5.48296 63.7816C5.55505 64.3291 5.1696 64.8315 4.62204 64.9036L1.60928 65.3002C1.06172 65.3723 0.559398 64.9868 0.487311 64.4393C0.415223 63.8917 0.800669 63.3894 1.34823 63.3173L4.36099 62.9207C4.90855 62.8486 5.41088 63.234 5.48296 63.7816ZM112.651 50.6819C113.199 50.6098 113.584 50.1075 113.512 49.5599C113.44 49.0123 112.937 48.6269 112.39 48.699L109.377 49.0956C108.83 49.1677 108.444 49.67 108.516 50.2176C108.588 50.7652 109.091 51.1506 109.638 51.0785L112.651 50.6819ZM25.3677 98.2237C25.8059 98.5599 25.8885 99.1877 25.5523 99.6259L23.7024 102.037C23.3662 102.475 22.7385 102.557 22.3003 102.221C21.8622 101.885 21.7795 101.257 22.1157 100.819L23.9656 98.4083C24.3018 97.9702 24.9296 97.8875 25.3677 98.2237ZM91.8835 13.181C92.2197 12.7429 92.1371 12.1151 91.6989 11.7789C91.2607 11.4427 90.633 11.5253 90.2968 11.9635L88.4469 14.3743C88.1107 14.8125 88.1934 15.4402 88.6315 15.7764C89.0697 16.1126 89.6974 16.03 90.0336 15.5918L91.8835 13.181ZM15.7762 25.3675C15.44 25.8057 14.8122 25.8884 14.3741 25.5521L11.9633 23.7023C11.5251 23.3661 11.4425 22.7383 11.7787 22.3001C12.1149 21.862 12.7426 21.7793 13.1808 22.1156L15.5916 23.9654C16.0298 24.3016 16.1124 24.9294 15.7762 25.3675ZM100.818 91.8837C101.257 92.2199 101.884 92.1373 102.221 91.6991C102.557 91.2609 102.474 90.6332 102.036 90.297L99.6251 88.4471C99.187 88.1109 98.5592 88.1935 98.223 88.6317C97.8868 89.0698 97.9695 89.6976 98.4076 90.0338L100.818 91.8837ZM37.6562 106.312L36.4934 109.12C36.282 109.63 35.697 109.872 35.1868 109.661C34.6766 109.45 34.4343 108.865 34.6456 108.354L35.8085 105.547C36.0198 105.037 36.6048 104.794 37.115 105.006C37.6253 105.217 37.8676 105.802 37.6562 106.312ZM79.3538 5.64538C79.5651 5.13513 79.3228 4.55017 78.8126 4.33882C78.3023 4.12747 77.7173 4.36977 77.506 4.88001L76.3431 7.68746C76.1318 8.1977 76.3741 8.78267 76.8843 8.99402C77.3945 9.20537 77.9795 8.96307 78.1909 8.45283L79.3538 5.64538ZM7.68733 37.6563L4.87988 36.4934C4.36963 36.2821 4.12733 35.6971 4.33868 35.1869C4.55003 34.6766 5.135 34.4343 5.64524 34.6457L8.45269 35.8085C8.96294 36.0199 9.20524 36.6049 8.99389 37.1151C8.78254 37.6254 8.19757 37.8677 7.68733 37.6563ZM108.354 79.3541C108.864 79.5654 109.449 79.3231 109.661 78.8129C109.872 78.3026 109.63 77.7176 109.119 77.5063L106.312 76.3434C105.802 76.1321 105.217 76.3744 105.005 76.8846C104.794 77.3949 105.036 77.9798 105.547 78.1912L108.354 79.3541ZM8.99377 76.8849C9.20512 77.3951 8.96282 77.9801 8.45257 78.1915L5.64512 79.3543C5.13488 79.5657 4.54991 79.3234 4.33856 78.8131C4.12721 78.3029 4.36951 77.7179 4.87976 77.5066L7.6872 76.3437C8.19745 76.1323 8.78242 76.3746 8.99377 76.8849ZM109.119 36.4932C109.63 36.2819 109.872 35.6969 109.661 35.1867C109.449 34.6764 108.864 34.4341 108.354 34.6455L105.547 35.8083C105.036 36.0197 104.794 36.6047 105.005 37.1149C105.217 37.6251 105.802 37.8675 106.312 37.6561L109.119 36.4932ZM37.1153 8.9937C36.605 9.20505 36.0201 8.96275 35.8087 8.45251L34.6458 5.64506C34.4345 5.13481 34.6768 4.54985 35.187 4.3385C35.6973 4.12715 36.2823 4.36945 36.4936 4.87969L37.6565 7.68714C37.8678 8.19739 37.6255 8.78235 37.1153 8.9937ZM77.5059 109.119C77.7172 109.63 78.3022 109.872 78.8124 109.661C79.3227 109.449 79.565 108.864 79.3536 108.354L78.1907 105.547C77.9794 105.036 77.3944 104.794 76.8842 105.005C76.3739 105.217 76.1316 105.802 76.343 106.312L77.5059 109.119ZM15.7761 88.632C16.1123 89.0701 16.0296 89.6979 15.5915 90.0341L13.1807 91.884C12.7425 92.2202 12.1148 92.1375 11.7786 91.6994C11.4424 91.2612 11.525 90.6335 11.9632 90.2972L14.374 88.4474C14.8121 88.1112 15.4399 88.1938 15.7761 88.632ZM102.036 23.7025C102.474 23.3663 102.557 22.7386 102.221 22.3004C101.884 21.8623 101.257 21.7796 100.819 22.1158L98.4077 23.9657C97.9696 24.3019 97.8869 24.9297 98.2231 25.3678C98.5594 25.806 99.1871 25.8886 99.6253 25.5524L102.036 23.7025ZM25.3679 15.7763C24.9297 16.1125 24.302 16.0298 23.9657 15.5917L22.1159 13.1809C21.7797 12.7427 21.8623 12.115 22.3005 11.7787C22.7386 11.4425 23.3664 11.5252 23.7026 11.9633L25.5525 14.3741C25.8887 14.8123 25.806 15.4401 25.3679 15.7763ZM90.2964 102.036C90.6326 102.474 91.2604 102.557 91.6985 102.221C92.1367 101.884 92.2193 101.257 91.8831 100.818L90.0333 98.4077C89.697 97.9695 89.0693 97.8869 88.6311 98.2231C88.193 98.5593 88.1103 99.187 88.4465 99.6252L90.2964 102.036ZM5.48272 50.2179C5.41063 50.7655 4.90831 51.1509 4.36075 51.0788L1.34799 50.6822C0.800425 50.6101 0.414979 50.1078 0.487066 49.5602C0.559154 49.0127 1.06148 48.6272 1.60904 48.6993L4.6218 49.096C5.16936 49.168 5.55481 49.6704 5.48272 50.2179ZM112.39 65.3005C112.937 65.3726 113.44 64.9872 113.512 64.4396C113.584 63.892 113.198 63.3897 112.651 63.3176L109.638 62.921C109.091 62.8489 108.588 63.2344 108.516 63.7819C108.444 64.3295 108.829 64.8318 109.377 64.9039L112.39 65.3005ZM63.7821 5.48314C63.2346 5.41106 62.8491 4.90873 62.9212 4.36117L63.3179 1.34841C63.3899 0.80085 63.8923 0.415404 64.4398 0.487492C64.9874 0.559579 65.3728 1.0619 65.3007 1.60946L64.9041 4.62223C64.832 5.16979 64.3297 5.55523 63.7821 5.48314ZM48.6987 112.39C48.6266 112.938 49.012 113.44 49.5596 113.512C50.1072 113.584 50.6095 113.199 50.6816 112.651L51.0782 109.638C51.1503 109.091 50.7649 108.588 50.2173 108.516C49.6697 108.444 49.1674 108.83 49.0953 109.377L48.6987 112.39Z" fill="white"/>
</svg>
