<svg width="260" height="260" viewBox="0 0 260 260" fill="none" xmlns="http://www.w3.org/2000/svg">
<path d="M130 252L130 259" stroke="white" stroke-width="2" stroke-linecap="round"/>
<path d="M130 1L130 8" stroke="white" stroke-width="2" stroke-linecap="round"/>
<path d="M8 130L1 130" stroke="white" stroke-width="2" stroke-linecap="round"/>
<path d="M259 130L252 130" stroke="white" stroke-width="2" stroke-linecap="round"/>
<path d="M43.7329 216.267L38.7832 221.217" stroke="white" stroke-width="2" stroke-linecap="round"/>
<path d="M221.217 38.7832L216.267 43.733" stroke="white" stroke-width="2" stroke-linecap="round"/>
<path d="M43.7329 43.7329L38.7832 38.7832" stroke="white" stroke-width="2" stroke-linecap="round"/>
<path d="M221.217 221.217L216.267 216.267" stroke="white" stroke-width="2" stroke-linecap="round"/>
<path d="M98.4241 247.843L96.6123 254.604" stroke="white" stroke-width="2" stroke-linecap="round"/>
<path d="M163.388 5.39551L161.576 12.157" stroke="white" stroke-width="2" stroke-linecap="round"/>
<path d="M12.1572 98.4241L5.39575 96.6123" stroke="white" stroke-width="2" stroke-linecap="round"/>
<path d="M254.604 163.388L247.843 161.576" stroke="white" stroke-width="2" stroke-linecap="round"/>
<path d="M24.3447 191L18.2825 194.5" stroke="white" stroke-width="2" stroke-linecap="round"/>
<path d="M241.717 65.5L235.655 69" stroke="white" stroke-width="2" stroke-linecap="round"/>
<path d="M69 24.3447L65.5 18.2825" stroke="white" stroke-width="2" stroke-linecap="round"/>
<path d="M194.5 241.717L191 235.655" stroke="white" stroke-width="2" stroke-linecap="round"/>
<path d="M69 235.655L65.5 241.717" stroke="white" stroke-width="2" stroke-linecap="round"/>
<path d="M194.5 18.2827L191 24.3449" stroke="white" stroke-width="2" stroke-linecap="round"/>
<path d="M24.3447 69L18.2825 65.5" stroke="white" stroke-width="2" stroke-linecap="round"/>
<path d="M241.717 194.5L235.655 191" stroke="white" stroke-width="2" stroke-linecap="round"/>
<path d="M12.157 161.576L5.3955 163.388" stroke="white" stroke-width="2" stroke-linecap="round"/>
<path d="M254.604 96.6123L247.843 98.424" stroke="white" stroke-width="2" stroke-linecap="round"/>
<path d="M98.4241 12.1567L96.6123 5.39526" stroke="white" stroke-width="2" stroke-linecap="round"/>
<path d="M163.388 254.604L161.576 247.843" stroke="white" stroke-width="2" stroke-linecap="round"/>
<path d="M140.633 251.536L141.243 258.509" stroke="white" stroke-width="2" stroke-linecap="round"/>
<path d="M118.757 1.49097L119.367 8.46433" stroke="white" stroke-width="2" stroke-linecap="round"/>
<path d="M8.46436 140.633L1.49099 141.243" stroke="white" stroke-width="2" stroke-linecap="round"/>
<path d="M258.509 118.757L251.536 119.367" stroke="white" stroke-width="2" stroke-linecap="round"/>
<path d="M51.5798 223.458L47.0803 228.82" stroke="white" stroke-width="2" stroke-linecap="round"/>
<path d="M212.92 31.1802L208.42 36.5425" stroke="white" stroke-width="2" stroke-linecap="round"/>
<path d="M36.5425 51.5798L31.1802 47.0803" stroke="white" stroke-width="2" stroke-linecap="round"/>
<path d="M228.82 212.92L223.458 208.42" stroke="white" stroke-width="2" stroke-linecap="round"/>
<path d="M108.815 250.146L107.599 257.04" stroke="white" stroke-width="2" stroke-linecap="round"/>
<path d="M152.401 2.95972L151.185 9.85337" stroke="white" stroke-width="2" stroke-linecap="round"/>
<path d="M9.85352 108.815L2.95986 107.599" stroke="white" stroke-width="2" stroke-linecap="round"/>
<path d="M257.04 152.401L250.147 151.185" stroke="white" stroke-width="2" stroke-linecap="round"/>
<path d="M30.0635 199.976L24.3294 203.991" stroke="white" stroke-width="2" stroke-linecap="round"/>
<path d="M235.671 56.0085L229.937 60.0236" stroke="white" stroke-width="2" stroke-linecap="round"/>
<path d="M60.0237 30.0632L56.0086 24.3292" stroke="white" stroke-width="2" stroke-linecap="round"/>
<path d="M203.991 235.671L199.976 229.937" stroke="white" stroke-width="2" stroke-linecap="round"/>
<path d="M78.4404 240.57L75.4821 246.914" stroke="white" stroke-width="2" stroke-linecap="round"/>
<path d="M184.518 13.0862L181.559 19.4303" stroke="white" stroke-width="2" stroke-linecap="round"/>
<path d="M19.4304 78.4407L13.0863 75.4823" stroke="white" stroke-width="2" stroke-linecap="round"/>
<path d="M246.914 184.518L240.569 181.559" stroke="white" stroke-width="2" stroke-linecap="round"/>
<path d="M15.3574 171.727L8.77957 174.121" stroke="white" stroke-width="2" stroke-linecap="round"/>
<path d="M251.22 85.8794L244.643 88.2735" stroke="white" stroke-width="2" stroke-linecap="round"/>
<path d="M88.2734 15.3572L85.8793 8.77933" stroke="white" stroke-width="2" stroke-linecap="round"/>
<path d="M174.121 251.22L171.726 244.643" stroke="white" stroke-width="2" stroke-linecap="round"/>
<path d="M151.185 250.146L152.401 257.04" stroke="white" stroke-width="2" stroke-linecap="round"/>
<path d="M107.599 2.95972L108.815 9.85337" stroke="white" stroke-width="2" stroke-linecap="round"/>
<path d="M9.85352 151.185L2.95986 152.401" stroke="white" stroke-width="2" stroke-linecap="round"/>
<path d="M257.04 107.599L250.147 108.815" stroke="white" stroke-width="2" stroke-linecap="round"/>
<path d="M60.0237 229.937L56.0086 235.671" stroke="white" stroke-width="2" stroke-linecap="round"/>
<path d="M203.991 24.3293L199.976 30.0634" stroke="white" stroke-width="2" stroke-linecap="round"/>
<path d="M30.0635 60.0234L24.3294 56.0084" stroke="white" stroke-width="2" stroke-linecap="round"/>
<path d="M235.671 203.991L229.937 199.976" stroke="white" stroke-width="2" stroke-linecap="round"/>
<path d="M119.367 251.536L118.757 258.509" stroke="white" stroke-width="2" stroke-linecap="round"/>
<path d="M141.243 1.49072L140.633 8.46409" stroke="white" stroke-width="2" stroke-linecap="round"/>
<path d="M8.46436 119.367L1.49099 118.757" stroke="white" stroke-width="2" stroke-linecap="round"/>
<path d="M258.509 141.243L251.536 140.633" stroke="white" stroke-width="2" stroke-linecap="round"/>
<path d="M36.5425 208.42L31.1802 212.919" stroke="white" stroke-width="2" stroke-linecap="round"/>
<path d="M228.82 47.0803L223.458 51.5798" stroke="white" stroke-width="2" stroke-linecap="round"/>
<path d="M51.5798 36.5422L47.0803 31.1799" stroke="white" stroke-width="2" stroke-linecap="round"/>
<path d="M212.92 228.82L208.42 223.457" stroke="white" stroke-width="2" stroke-linecap="round"/>
<path d="M88.2734 244.642L85.8793 251.22" stroke="white" stroke-width="2" stroke-linecap="round"/>
<path d="M174.121 8.77954L171.726 15.3574" stroke="white" stroke-width="2" stroke-linecap="round"/>
<path d="M15.3574 88.2734L8.77957 85.8793" stroke="white" stroke-width="2" stroke-linecap="round"/>
<path d="M251.22 174.121L244.642 171.726" stroke="white" stroke-width="2" stroke-linecap="round"/>
<path d="M19.4304 181.559L13.0863 184.518" stroke="white" stroke-width="2" stroke-linecap="round"/>
<path d="M246.914 75.4822L240.57 78.4405" stroke="white" stroke-width="2" stroke-linecap="round"/>
<path d="M78.4404 19.4302L75.4821 13.086" stroke="white" stroke-width="2" stroke-linecap="round"/>
<path d="M184.518 246.914L181.559 240.569" stroke="white" stroke-width="2" stroke-linecap="round"/>
<path d="M135.322 251.884L135.627 258.877" stroke="white" stroke-width="2" stroke-linecap="round"/>
<path d="M124.373 1.1228L124.678 8.11614" stroke="white" stroke-width="2" stroke-linecap="round"/>
<path d="M8.11621 135.322L1.12287 135.627" stroke="white" stroke-width="2" stroke-linecap="round"/>
<path d="M258.877 124.373L251.884 124.678" stroke="white" stroke-width="2" stroke-linecap="round"/>
<path d="M47.5779 219.948L42.8487 225.109" stroke="white" stroke-width="2" stroke-linecap="round"/>
<path d="M217.151 34.8911L212.422 40.0521" stroke="white" stroke-width="2" stroke-linecap="round"/>
<path d="M40.0522 47.5779L34.8913 42.8487" stroke="white" stroke-width="2" stroke-linecap="round"/>
<path d="M225.109 217.151L219.948 212.422" stroke="white" stroke-width="2" stroke-linecap="round"/>
<path d="M103.594 249.108L102.079 255.942" stroke="white" stroke-width="2" stroke-linecap="round"/>
<path d="M157.921 4.05786L156.406 10.8919" stroke="white" stroke-width="2" stroke-linecap="round"/>
<path d="M10.8921 103.594L4.05802 102.079" stroke="white" stroke-width="2" stroke-linecap="round"/>
<path d="M255.942 157.921L249.108 156.406" stroke="white" stroke-width="2" stroke-linecap="round"/>
<path d="M27.1062 195.551L21.2025 199.312" stroke="white" stroke-width="2" stroke-linecap="round"/>
<path d="M238.797 60.6885L232.894 64.4496" stroke="white" stroke-width="2" stroke-linecap="round"/>
<path d="M64.4495 27.106L60.6884 21.2022" stroke="white" stroke-width="2" stroke-linecap="round"/>
<path d="M199.312 238.798L195.55 232.894" stroke="white" stroke-width="2" stroke-linecap="round"/>
<path d="M73.6665 238.215L70.4343 244.424" stroke="white" stroke-width="2" stroke-linecap="round"/>
<path d="M189.565 15.5757L186.333 21.7848" stroke="white" stroke-width="2" stroke-linecap="round"/>
<path d="M21.7847 73.6667L15.5756 70.4345" stroke="white" stroke-width="2" stroke-linecap="round"/>
<path d="M244.424 189.566L238.215 186.333" stroke="white" stroke-width="2" stroke-linecap="round"/>
<path d="M13.6465 166.686L6.97047 168.791" stroke="white" stroke-width="2" stroke-linecap="round"/>
<path d="M253.03 91.209L246.354 93.3139" stroke="white" stroke-width="2" stroke-linecap="round"/>
<path d="M93.314 13.6462L91.209 6.97022" stroke="white" stroke-width="2" stroke-linecap="round"/>
<path d="M168.791 253.03L166.686 246.354" stroke="white" stroke-width="2" stroke-linecap="round"/>
<path d="M145.924 250.956L146.838 257.896" stroke="white" stroke-width="2" stroke-linecap="round"/>
<path d="M113.162 2.10376L114.076 9.04387" stroke="white" stroke-width="2" stroke-linecap="round"/>
<path d="M9.0437 145.924L2.10359 146.838" stroke="white" stroke-width="2" stroke-linecap="round"/>
<path d="M257.896 113.162L250.956 114.076" stroke="white" stroke-width="2" stroke-linecap="round"/>
<path d="M55.731 226.789L51.4696 232.343" stroke="white" stroke-width="2" stroke-linecap="round"/>
<path d="M208.53 27.6572L204.269 33.2107" stroke="white" stroke-width="2" stroke-linecap="round"/>
<path d="M33.2109 55.731L27.6575 51.4696" stroke="white" stroke-width="2" stroke-linecap="round"/>
<path d="M232.343 208.53L226.789 204.269" stroke="white" stroke-width="2" stroke-linecap="round"/>
<path d="M114.076 250.956L113.162 257.896" stroke="white" stroke-width="2" stroke-linecap="round"/>
<path d="M146.838 2.10352L145.924 9.04363" stroke="white" stroke-width="2" stroke-linecap="round"/>
<path d="M9.04395 114.076L2.10383 113.162" stroke="white" stroke-width="2" stroke-linecap="round"/>
<path d="M257.896 146.838L250.956 145.924" stroke="white" stroke-width="2" stroke-linecap="round"/>
<path d="M33.2109 204.269L27.6575 208.53" stroke="white" stroke-width="2" stroke-linecap="round"/>
<path d="M232.343 51.4697L226.789 55.7311" stroke="white" stroke-width="2" stroke-linecap="round"/>
<path d="M55.731 33.2107L51.4696 27.6572" stroke="white" stroke-width="2" stroke-linecap="round"/>
<path d="M208.53 232.343L204.269 226.789" stroke="white" stroke-width="2" stroke-linecap="round"/>
<path d="M83.3125 242.713L80.6337 249.181" stroke="white" stroke-width="2" stroke-linecap="round"/>
<path d="M179.366 10.8193L176.687 17.2865" stroke="white" stroke-width="2" stroke-linecap="round"/>
<path d="M17.2866 83.3127L10.8195 80.634" stroke="white" stroke-width="2" stroke-linecap="round"/>
<path d="M249.18 179.366L242.713 176.687" stroke="white" stroke-width="2" stroke-linecap="round"/>
<path d="M17.2866 176.688L10.8195 179.366" stroke="white" stroke-width="2" stroke-linecap="round"/>
<path d="M249.181 80.6338L242.714 83.3126" stroke="white" stroke-width="2" stroke-linecap="round"/>
<path d="M83.3125 17.2864L80.6337 10.8192" stroke="white" stroke-width="2" stroke-linecap="round"/>
<path d="M179.366 249.181L176.687 242.714" stroke="white" stroke-width="2" stroke-linecap="round"/>
<path d="M156.406 249.108L157.921 255.942" stroke="white" stroke-width="2" stroke-linecap="round"/>
<path d="M102.079 4.05762L103.594 10.8917" stroke="white" stroke-width="2" stroke-linecap="round"/>
<path d="M10.8921 156.406L4.05802 157.921" stroke="white" stroke-width="2" stroke-linecap="round"/>
<path d="M255.942 102.079L249.108 103.594" stroke="white" stroke-width="2" stroke-linecap="round"/>
<path d="M64.4495 232.894L60.6884 238.798" stroke="white" stroke-width="2" stroke-linecap="round"/>
<path d="M199.312 21.2024L195.551 27.1061" stroke="white" stroke-width="2" stroke-linecap="round"/>
<path d="M27.1062 64.4492L21.2025 60.6881" stroke="white" stroke-width="2" stroke-linecap="round"/>
<path d="M238.798 199.312L232.894 195.55" stroke="white" stroke-width="2" stroke-linecap="round"/>
<path d="M124.678 251.884L124.373 258.877" stroke="white" stroke-width="2" stroke-linecap="round"/>
<path d="M135.627 1.12256L135.322 8.1159" stroke="white" stroke-width="2" stroke-linecap="round"/>
<path d="M8.11621 124.678L1.12287 124.373" stroke="white" stroke-width="2" stroke-linecap="round"/>
<path d="M258.877 135.627L251.884 135.322" stroke="white" stroke-width="2" stroke-linecap="round"/>
<path d="M40.052 212.422L34.8911 217.151" stroke="white" stroke-width="2" stroke-linecap="round"/>
<path d="M225.109 42.8489L219.948 47.578" stroke="white" stroke-width="2" stroke-linecap="round"/>
<path d="M47.5779 40.0518L42.8487 34.8908" stroke="white" stroke-width="2" stroke-linecap="round"/>
<path d="M217.151 225.109L212.422 219.948" stroke="white" stroke-width="2" stroke-linecap="round"/>
<path d="M93.314 246.353L91.209 253.029" stroke="white" stroke-width="2" stroke-linecap="round"/>
<path d="M168.791 6.97046L166.686 13.6465" stroke="white" stroke-width="2" stroke-linecap="round"/>
<path d="M13.6465 93.3137L6.97047 91.2088" stroke="white" stroke-width="2" stroke-linecap="round"/>
<path d="M253.03 168.791L246.354 166.686" stroke="white" stroke-width="2" stroke-linecap="round"/>
<path d="M21.7847 186.333L15.5756 189.565" stroke="white" stroke-width="2" stroke-linecap="round"/>
<path d="M244.425 70.4343L238.215 73.6666" stroke="white" stroke-width="2" stroke-linecap="round"/>
<path d="M73.6665 21.7844L70.4343 15.5753" stroke="white" stroke-width="2" stroke-linecap="round"/>
<path d="M189.566 244.424L186.333 238.215" stroke="white" stroke-width="2" stroke-linecap="round"/>
</svg>
