<svg width="210" height="107" viewBox="0 0 210 107" fill="none" xmlns="http://www.w3.org/2000/svg">
<path opacity="0.03" fill-rule="evenodd" clip-rule="evenodd" d="M10.8705 53.0794C-0.118235 60.4915 -3.01775 75.4082 4.39426 86.397L18.2912 107L198 107C204.627 107 210 101.627 210 95V12C210 5.37261 204.627 3.05176e-05 198 3.05176e-05L89.564 3.54186e-05L10.8705 53.0794Z" fill="white"/>
<path opacity="0.07" fill-rule="evenodd" clip-rule="evenodd" d="M33.7647 65.2902C26.4389 70.2315 24.5059 80.176 29.4472 87.5019L42.5989 107L198 107C204.628 107 210 101.627 210 95V44.1368L180.229 3.13208e-05L130.561 3.35656e-05L33.7647 65.2902Z" fill="white"/>
<path opacity="0.22" fill-rule="evenodd" clip-rule="evenodd" d="M210 77.8023V95C210 101.627 204.627 107 198 107L65.3065 107L53.888 90.0713C52.9554 88.6887 52.3493 87.1817 52.0519 85.6415L120.056 85.937C128.066 85.9719 135.283 81.1039 138.252 73.6634L163.453 10.5007C164.769 11.3534 165.94 12.4799 166.872 13.8625L210 77.8023ZM57.1261 73.4126C55.136 74.7549 53.6766 76.5894 52.8005 78.6447L120.086 78.9371C125.221 78.9594 129.848 75.8389 131.75 71.0694L156.685 8.57376C154.451 8.61612 152.203 9.28205 150.213 10.6244L57.1261 73.4126Z" fill="white"/>
</svg>
